PathFileType	4	(X/Y/Z)	SUBJ89_3_walk_RCNL2025.trc
DataRate	CameraRate	NumFrames	NumMarkers	Units	OrigDataRate	OrigDataStartFrame	OrigNumFrames
100	100	12	25	mm	100	171	227
Frame#	Time	R_Shoulder			L_Shoulder			C7			J_Notch			R_Elbow			L_Elbow			R_Wrist			L_Wrist			R_Asis			L_Asis			Sacral			Thoracic			Sternum			R_Thigh_Lateral			R_Knee_Lateral			R_Shank_Lateral			R_Ankle_Lateral			R_Heel			R_Toe			L_Thigh_Lateral			L_Knee_Lateral			L_Shank_Lateral			L_Ankle_Lateral			L_Heel			L_Toe		
		X1	Y1	Z1	X2	Y2	Z2	X3	Y3	Z3	X4	Y4	Z4	X5	Y5	Z5	X6	Y6	Z6	X7	Y7	Z7	X8	Y8	Z8	X9	Y9	Z9	X10	Y10	Z10	X11	Y11	Z11	X12	Y12	Z12	X13	Y13	Z13	X14	Y14	Z14	X15	Y15	Z15	X16	Y16	Z16	X17	Y17	Z17	X18	Y18	Z18	X19	Y19	Z19	X20	Y20	Z20	X21	Y21	Z21	X22	Y22	Z22	X23	Y23	Z23	X24	Y24	Z24	X25	Y25	Z25
171	1.70000000	1402.948853	1419.996582	-29.206755	1374.533691	1426.444092	-440.693848	1330.009155	1515.898560	-230.987656	1441.299683	1385.510376	-235.494812	1302.441040	1098.747559	28.090816	1322.751831	1086.410156	-478.656647	1408.039307	848.207520	16.628268	1418.714172	836.007874	-481.551453	1419.652222	992.299194	-110.362106	1427.578003	994.833374	-347.804626	1256.616821	1050.267944	-220.386948	1237.163574	1336.422241	-226.121201	1469.415283	1237.425293	-243.667526	1463.470215	619.616882	-31.900467	1485.438477	507.234375	-83.551407	1369.473389	318.405670	-49.257206	1266.272339	140.303314	-127.855263	1233.862671	146.220016	-177.666260	1387.030151	48.096378	-134.277817	1391.799194	562.190063	-416.356598	1378.777222	479.725861	-338.471893	1319.182373	251.873871	-380.133942	1280.755981	60.667091	-305.386230	1238.729858	70.211952	-261.015717	1434.364380	29.525742	-282.585907
172	1.71000000	1415.991333	1419.932617	-28.620516	1388.901855	1426.954224	-440.016846	1343.549927	1515.834961	-230.497742	1454.904663	1385.558716	-234.948746	1312.429077	1099.621094	28.488604	1342.146484	1086.487549	-480.298767	1414.728821	847.685089	18.208068	1445.084473	838.714722	-479.317215	1433.812134	992.554932	-110.845146	1440.895752	994.420166	-348.236755	1270.416992	1050.271729	-220.158844	1250.770630	1336.308594	-226.091766	1482.913696	1237.431274	-243.466370	1483.057007	621.926025	-31.449457	1506.154297	509.172089	-83.159187	1400.043701	314.023193	-48.143448	1306.737671	130.583115	-126.047668	1273.972900	134.695572	-175.901154	1432.717163	45.832298	-132.887314	1396.973267	561.821838	-416.746796	1382.284180	479.329834	-338.799286	1320.497314	251.866409	-380.042633	1280.957153	60.979801	-304.822876	1239.135010	70.792793	-260.370575	1434.482178	29.456453	-282.624664
173	1.72000000	1429.088257	1419.446289	-27.987041	1403.163696	1427.051025	-439.287842	1357.101685	1515.403809	-229.932098	1468.505737	1385.210693	-234.356781	1322.550415	1100.071289	28.871271	1361.658569	1086.261353	-481.984680	1421.633484	846.811157	19.828360	1471.484802	841.368164	-476.968842	1447.932495	992.320618	-111.212395	1454.207275	993.648132	-348.592865	1284.200562	1049.927246	-219.884445	1264.376587	1335.858887	-225.949799	1496.411499	1237.033813	-243.217941	1501.907959	623.722107	-31.104393	1526.106567	510.615814	-82.824631	1430.414673	309.649445	-47.028423	1347.955078	121.169006	-124.131126	1315.010986	123.359573	-174.065872	1478.790039	44.249447	-131.242386	1402.399048	561.323181	-417.014923	1386.036743	478.873322	-339.021698	1321.871582	251.853531	-379.797852	1281.161621	61.304874	-304.047516	1239.592651	71.406769	-259.454132	1434.600708	29.381433	-282.643005
174	1.73000000	1442.235107	1418.548462	-27.303003	1417.316895	1426.743530	-438.516663	1370.674805	1514.615601	-229.292572	1482.113159	1384.477417	-233.720062	1332.816162	1100.101196	29.231028	1381.281006	1085.746338	-483.684174	1428.770142	845.588226	21.485508	1497.865295	843.969818	-474.501587	1462.018433	991.610046	-111.462357	1467.518921	992.545166	-348.869385	1297.971802	1049.242554	-219.561890	1277.989380	1335.083008	-225.696381	1509.920166	1236.246948	-242.917831	1519.941406	624.935669	-30.855745	1545.280884	511.545654	-82.550606	1460.550293	305.364960	-45.899231	1389.854980	112.264145	-122.098648	1356.893066	112.439087	-172.130020	1525.128174	43.499790	-129.397827	1408.082275	560.681885	-417.147980	1390.060181	478.344910	-339.116241	1323.303223	251.841034	-379.381073	1281.368774	61.647327	-303.047119	1240.107666	72.053459	-258.247467	1434.718628	29.303032	-282.628693
175	1.74000000	1455.430908	1417.256836	-26.566082	1431.367188	1426.047607	-437.711761	1384.278809	1513.487427	-228.580444	1495.736694	1383.376099	-233.040176	1343.237305	1099.720947	29.561766	1401.004761	1084.963257	-485.364227	1436.150146	844.025177	23.172362	1524.171509	846.521027	-471.911758	1476.082153	990.446899	-111.599358	1480.835205	991.145935	-349.066223	1311.735596	1048.228638	-219.185333	1291.616943	1333.996582	-225.332779	1523.450195	1235.091309	-242.563431	1537.081787	625.504517	-30.687532	1563.677368	511.954193	-82.341095	1490.416626	301.247589	-44.745811	1432.324097	104.062874	-119.949974	1399.488037	102.156372	-170.071075	1571.578125	43.718655	-127.417618	1414.013428	559.893799	-417.144135	1394.373047	477.735870	-339.068604	1324.796143	251.836288	-378.785858	1281.578491	62.014763	-301.828491	1240.683594	72.734169	-256.759918	1434.833374	29.225012	-282.571777
176	1.75000000	1468.677490	1415.595947	-25.774961	1445.328125	1424.985352	-436.879272	1397.921875	1512.041992	-227.796082	1509.385132	1381.930176	-232.318817	1353.826660	1098.947388	29.859995	1420.818359	1083.938232	-486.989868	1443.779175	842.136719	24.878621	1550.345886	849.021881	-469.199020	1490.142822	988.863770	-111.632835	1494.158203	989.488770	-349.186707	1325.498169	1046.900146	-218.745300	1305.266724	1332.621582	-224.860840	1537.010254	1233.594238	-242.153885	1553.270752	625.379761	-30.578003	1581.313477	511.848206	-82.200623	1519.974243	297.371582	-43.564362	1475.194092	96.740746	-117.695610	1442.609619	92.716118	-167.881424	1617.944702	45.013794	-125.367737	1420.175781	558.963623	-417.013214	1398.990479	477.041138	-338.876007	1326.364502	251.847656	-378.021881	1281.792114	62.417419	-300.422028	1241.321289	73.453613	-255.033035	1434.941406	29.151842	-282.467010
177	1.76000000	1481.979370	1413.596069	-24.929224	1459.220703	1423.585205	-436.022491	1411.610962	1510.307983	-226.938858	1523.065552	1380.168335	-231.557510	1364.600464	1097.802856	30.125582	1440.707886	1082.702393	-488.524902	1451.657959	839.942291	26.591640	1576.329773	851.470337	-466.368195	1504.224976	986.901062	-111.576416	1507.488770	987.612976	-349.237366	1339.266846	1045.275635	-218.229218	1318.945679	1330.985352	-224.283646	1550.607056	1231.787964	-241.689926	1568.482178	624.532715	-30.501011	1598.226440	511.249115	-82.133217	1549.169434	293.802795	-42.360180	1518.232910	90.441940	-115.360344	1486.010132	84.291100	-165.574295	1663.982300	47.450977	-123.310257	1426.554932	557.904419	-416.775330	1403.926758	476.259766	-338.549011	1328.034546	251.884003	-377.117035	1282.012939	62.868183	-298.882385	1242.017456	74.221870	-253.139709	1435.039673	29.087955	-282.315765
178	1.77000000	1495.342896	1411.292725	-24.029129	1473.072144	1421.881592	-435.141296	1425.351685	1508.319580	-226.007233	1536.784302	1378.124390	-230.757202	1375.578735	1096.315063	30.362013	1460.656128	1081.290405	-489.932861	1459.782959	837.465515	28.297662	1602.065308	853.861664	-463.430054	1518.355713	984.605835	-111.446648	1520.827515	985.557678	-349.227875	1353.051270	1043.378296	-217.622772	1332.660522	1329.120605	-223.606171	1564.245117	1229.709717	-241.173279	1582.736816	622.961853	-30.428244	1614.474243	510.192261	-82.141052	1577.927612	290.591217	-41.149582	1561.139893	85.265068	-112.985786	1529.375977	77.007668	-163.187836	1709.390015	51.037441	-121.299561	1433.147217	556.735962	-416.458893	1409.198364	475.395050	-338.111084	1329.846313	251.954132	-376.117126	1282.247803	63.382847	-297.285339	1242.764404	75.056190	-251.178955	1435.126099	29.037159	-282.126831
179	1.78000000	1508.775757	1408.726440	-23.075306	1486.914185	1419.915405	-434.232056	1439.148315	1506.114990	-224.999023	1550.546509	1375.836792	-229.917786	1386.785522	1094.516602	30.576132	1480.642700	1079.740112	-491.177887	1468.147888	834.734070	29.983267	1627.496765	856.187775	-460.400589	1532.562500	982.030334	-111.261307	1534.176147	983.360291	-349.170288	1366.863281	1041.235840	-216.911545	1346.417847	1327.063232	-222.835480	1577.927856	1227.400269	-240.605927	1596.115479	620.699219	-30.332262	1630.135986	508.725311	-82.223007	1606.146484	287.763184	-39.960629	1603.545410	81.249496	-110.631462	1572.327759	70.933128	-160.786713	1753.811646	55.705635	-119.381096	1439.966309	555.482239	-416.097290	1414.826416	474.453979	-337.596313	1331.852661	252.066650	-375.082825	1282.506470	63.980579	-295.721619	1243.550171	75.982086	-249.266754	1435.201050	29.002218	-281.916199
180	1.79000000	1522.286621	1405.941772	-22.068340	1500.781372	1417.733398	-433.287537	1453.005005	1503.736084	-223.911697	1564.357910	1373.348022	-229.037811	1398.246948	1092.444214	30.777319	1500.642700	1078.092163	-492.225983	1476.745117	831.779236	31.636847	1652.571045	858.437775	-457.299118	1546.869873	979.230896	-111.037430	1547.540161	981.056519	-349.077881	1380.717896	1038.881226	-216.083252	1360.224609	1324.851807	-221.980469	1591.659058	1224.903687	-239.989426	1608.766724	617.814697	-30.190197	1645.309326	506.906250	-82.373291	1633.693115	285.315094	-38.832432	1645.018555	78.364799	-108.373749	1614.425781	66.067177	-158.460052	1796.843872	61.300377	-117.592499	1447.046143	554.168457	-415.725220	1420.837769	473.445984	-337.045044	1334.116821	252.230042	-374.083679	1282.801636	64.684616	-294.288147	1244.360840	77.033485	-247.524536	1435.267700	28.984537	-281.705231
181	1.80000000	1535.884644	1402.985718	-21.008232	1514.708618	1415.387817	-432.297119	1466.926147	1501.226562	-222.742615	1578.224609	1370.704468	-228.114014	1409.989502	1090.138428	30.976349	1520.626831	1076.388062	-493.046051	1485.567627	828.636017	33.249775	1677.237671	860.598602	-454.146515	1561.298462	976.267151	-110.789322	1560.930664	978.680115	-348.963409	1394.632690	1036.351807	-215.130020	1374.088013	1322.526123	-221.051193	1605.444092	1222.266724	-239.324280	1620.904419	614.417786	-29.987595	1660.108032	504.801483	-82.580879	1660.405029	283.210999	-37.812729	1685.082275	76.506386	-106.302025	1655.183105	62.339222	-156.315125	1838.050781	67.572868	-115.966766	1454.439819	552.817444	-415.374817	1427.265747	472.381409	-336.498566	1336.707886	252.452988	-373.190735	1283.148193	65.523048	-293.078339	1245.183960	78.252129	-246.067093	1435.330933	28.983826	-281.517670
182	1.81000000	1549.579224	1399.907471	-19.893805	1528.728760	1412.935425	-431.247345	1480.916504	1498.630981	-221.489182	1592.155029	1367.954956	-227.141190	1422.037476	1087.642456	31.184156	1540.561157	1074.670410	-493.611267	1494.611023	825.342773	34.817069	1701.449524	862.656830	-450.964035	1575.862915	973.201172	-110.526726	1574.366089	976.263062	-348.836731	1408.628418	1033.690308	-214.050476	1388.017090	1320.125366	-220.057678	1619.291626	1219.537842	-238.609512	1632.795654	610.654602	-29.721714	1674.657227	502.484192	-82.830025	1686.097534	281.385376	-36.953716	1723.235596	75.499649	-104.511253	1694.084961	59.613148	-154.466232	1876.985718	74.184639	-114.536583	1462.216187	551.447510	-415.072021	1434.150757	471.269714	-335.993835	1339.695068	252.745102	-372.468201	1283.562378	66.529472	-292.172363	1246.012085	79.686630	-244.991074	1435.396240	28.997793	-281.376068
